<?xml version="1.0" standalone="no"?>
<!DOCTYPE svg PUBLIC "-//W3C//DTD SVG 20010904//EN"
 "http://www.w3.org/TR/2001/REC-SVG-20010904/DTD/svg10.dtd">
<svg version="1.0" xmlns="http://www.w3.org/2000/svg"
 width="1024.000000pt" height="1024.000000pt" viewBox="0 0 1024.000000 1024.000000"
 preserveAspectRatio="xMidYMid meet">

<g transform="translate(0.000000,1024.000000) scale(0.100000,-0.100000)"
fill="#000000" stroke="none">
<path d="M6703 8629 c-93 -27 -109 -181 -26 -261 l34 -33 250 -5 249 -5 -127
-140 c-195 -215 -728 -841 -851 -999 -13 -17 -26 -25 -31 -20 -4 5 -101 137
-214 294 -496 684 -473 654 -515 662 -63 12 -542 9 -542 -3 0 -6 59 -88 130
-182 172 -226 578 -769 734 -980 l125 -168 -82 -102 c-399 -500 -775 -957
-786 -957 -3 0 -6 251 -5 558 0 306 -2 600 -4 653 l-3 96 -103 5 c-57 3 -153
3 -215 0 l-111 -5 0 -993 0 -994 29 0 c43 0 210 46 302 82 80 33 84 36 276
232 231 236 552 607 900 1041 21 26 35 37 41 30 5 -5 94 -127 197 -270 104
-143 281 -388 395 -545 113 -157 247 -341 296 -410 l91 -125 277 -9 c175 -5
281 -5 287 1 6 6 -35 69 -112 174 -138 185 -397 539 -629 859 -86 118 -235
323 -331 455 -96 132 -178 245 -182 252 -7 11 107 153 555 690 162 194 417
482 472 532 l26 24 0 -275 c0 -269 0 -276 23 -309 54 -82 176 -92 240 -21 17
19 18 52 17 568 -1 585 -1 592 -50 605 -38 11 -990 9 -1027 -2z"/>
<path d="M3925 8119 c-438 -64 -861 -339 -1120 -729 -205 -309 -305 -645 -305
-1030 0 -754 408 -1415 1066 -1727 332 -157 791 -218 1189 -158 299 46 635
178 865 342 165 118 351 309 479 493 l52 75 -223 3 -223 2 -34 -42 c-154 -193
-425 -374 -681 -456 -492 -157 -1059 -86 -1467 184 -114 75 -309 270 -385 384
-118 177 -185 327 -235 525 -22 86 -26 129 -30 312 -6 249 6 349 68 536 136
417 446 741 834 874 167 57 433 79 580 48 126 -27 188 -16 237 43 46 56 45
167 -4 219 -69 74 -229 113 -453 112 -82 -1 -177 -5 -210 -10z"/>
<path d="M3970 5781 l0 -688 103 -22 c81 -16 270 -41 318 -41 5 0 9 304 9 720
l0 720 -215 0 -215 0 0 -689z"/>
<path d="M3330 5717 l0 -245 61 -57 c81 -74 186 -148 281 -196 43 -21 80 -39
83 -39 3 0 5 173 5 385 l0 385 -184 0 c-101 0 -198 3 -215 6 l-31 7 0 -246z"/>
<path d="M8220 3514 c-150 -22 -239 -64 -320 -150 -140 -150 -146 -361 -13
-504 73 -80 172 -129 359 -181 171 -46 228 -69 267 -107 62 -59 56 -156 -14
-215 -52 -45 -110 -61 -207 -55 -131 8 -216 68 -245 176 l-11 42 -142 0 c-79
0 -145 -4 -148 -9 -7 -11 20 -113 45 -170 103 -232 410 -350 714 -274 138 34
241 116 302 241 37 75 38 78 38 191 0 106 -2 120 -27 166 -62 118 -185 186
-487 271 -150 43 -196 65 -221 107 -34 55 -23 117 32 173 39 41 98 57 190 52
113 -5 172 -44 202 -131 l12 -36 138 -5 c112 -4 138 -2 143 9 7 19 -32 139
-62 190 -35 60 -117 132 -190 166 -92 43 -254 67 -355 53z"/>
<path d="M1906 3494 c-125 -30 -258 -116 -341 -222 -61 -75 -129 -219 -150
-312 -21 -94 -22 -261 -2 -355 54 -253 215 -440 449 -522 98 -35 271 -43 380
-19 196 44 355 172 444 361 18 39 36 82 40 98 l6 28 -148 -3 -147 -3 -26 -47
c-37 -66 -86 -114 -151 -146 -49 -24 -66 -27 -160 -27 -97 0 -110 2 -164 30
-83 42 -146 106 -190 195 -71 146 -70 316 4 467 39 79 132 173 208 210 50 25
68 28 147 28 74 -1 98 -5 134 -24 62 -32 138 -107 173 -168 l30 -53 145 0 146
0 -6 38 c-4 20 -25 75 -48 121 -78 158 -234 280 -414 326 -75 19 -278 19 -359
-1z"/>
<path d="M4850 3491 c0 -5 64 -100 143 -213 78 -112 186 -269 241 -350 l98
-146 -142 -204 c-291 -418 -340 -489 -340 -498 0 -12 309 -13 326 -2 6 4 48
67 93 141 46 73 115 183 156 243 l73 110 141 -214 c77 -117 152 -230 166 -250
l25 -38 165 0 c105 0 165 4 165 10 0 6 -64 101 -143 213 -292 412 -349 498
-344 512 7 17 242 377 354 543 46 67 86 129 90 137 5 14 -15 15 -153 13 l-158
-3 -154 -230 c-84 -126 -156 -228 -160 -226 -4 3 -75 106 -158 230 l-151 226
-166 3 c-96 1 -167 -1 -167 -7z"/>
<path d="M2977 3483 c-4 -3 -7 -322 -7 -709 l0 -702 83 -7 c45 -4 109 -5 142
-3 l60 3 3 263 2 263 102 -3 102 -3 150 -257 151 -256 155 -4 c85 -1 158 -1
162 2 3 3 -67 129 -157 280 l-163 275 52 27 c83 43 132 92 171 171 114 235 27
502 -198 608 -111 52 -171 59 -503 59 -165 0 -304 -3 -307 -7z m578 -249 c57
-6 119 -37 147 -75 43 -57 44 -171 4 -232 -43 -66 -111 -83 -338 -90 l-108 -3
0 208 0 208 123 -6 c67 -2 145 -7 172 -10z"/>
<path d="M4345 3478 c-3 -7 -4 -328 -3 -712 l3 -700 138 -3 137 -3 0 715 0
715 -135 0 c-99 0 -137 -3 -140 -12z"/>
<path d="M6352 2978 c4 -564 4 -559 69 -674 38 -67 132 -155 205 -192 172 -86
450 -85 625 3 107 55 206 172 251 296 22 63 23 72 26 572 l3 508 -143 -3 -143
-3 -5 -480 c-5 -475 -5 -481 -28 -530 -50 -108 -125 -150 -272 -150 -107 0
-175 22 -228 75 -66 66 -65 62 -72 600 l-5 485 -143 3 -143 3 3 -513z"/>
</g>
</svg>
